<svg id="Capa_1" data-name="Capa 1" xmlns="http://www.w3.org/2000/svg" viewBox="0 0 283.46 283.46"><title>bano</title><path d="M68.14,87.32c0-4.51-.1-8.93,0-13.34a16.1,16.1,0,0,1,1-5.8c1.67-3.75,5.12-5,9-5.1,2.75-.1,5.51,0,8.26,0h1.45V48.49H63.72a3.51,3.51,0,0,1-3.6-3.15,3.41,3.41,0,0,1,2.51-3.8,4.35,4.35,0,0,1,1.26-.13h55.43c2.3,0,4.06,1.55,4,3.52s-1.71,3.53-4,3.54c-7.26,0-14.53,0-21.8,0H95.84V63.06c.45,0,1,0,1.45,0,3.22.06,6.47-.11,9.66.25,5.44.62,8.35,4.06,8.44,9.61.06,4.22,0,8.45,0,12.68v1.64a42.47,42.47,0,0,1,12.5,3.59c13.31,6.17,21.86,16.3,25.08,30.66A51.94,51.94,0,0,1,154.11,132c.15,10.12.06,20.24,0,30.35a3.64,3.64,0,0,1-3,3.78,3.51,3.51,0,0,1-3.94-2.1,8.07,8.07,0,0,1-.42-2.77c0-6.41,0-12.82,0-19.24v-1.38H37v1c0,22.32-.05,44.64,0,67a25.74,25.74,0,0,0,21.15,25.6,31,31,0,0,0,5.93.56q31.27.06,62.55,0a3.47,3.47,0,0,1,3.79,2.91,3.6,3.6,0,0,1-2.07,4,5.54,5.54,0,0,1-2.07.31h-55c-2.89,0-5.79.05-8.69,0-12.86-.25-22.39-6.14-28.66-17.28a32.91,32.91,0,0,1-4.06-16.34c0-26.32-.19-52.63.1-78.94.13-12.47,5.24-23,14.71-31.3A46.52,46.52,0,0,1,65.82,87.71C66.54,87.55,67.29,87.46,68.14,87.32Zm78.63,45.9a36.47,36.47,0,0,0-36.7-38.81c-12.06,0-24.12,0-36.18,0a30.57,30.57,0,0,0-6.76.64C52.65,98.43,42.78,106.94,38.3,121.3a31.08,31.08,0,0,0-1.18,11.92ZM108.09,86.93c0-.08.16-.2.16-.32,0-4.55,0-9.11,0-13.66a2.91,2.91,0,0,0-3-2.76q-13.51,0-27,0a2.81,2.81,0,0,0-3,3c0,.9,0,1.8,0,2.7v11Z"/><path d="M149.88,199.29a34.36,34.36,0,0,1,1.6-12.08c4-11.27,12.09-17.87,23.52-20.67,7.64-1.87,15.42-2,23.18-1.39,7.28.54,14.29,2.29,20.4,6.59a29.34,29.34,0,0,1,12.85,21.17c.26,2.06.3,4.14.45,6.38h17.86c2.48,0,4.06,1.43,3.86,3.84-1.25,15.5-7.37,28.09-21.73,35.55a31.29,31.29,0,0,1-14.65,3.38q-26.58,0-53.15,0c-15.76,0-29-10.48-34.13-24.64a44.56,44.56,0,0,1-2.41-13.78c-.1-3.25,1.8-4.45,4.4-4.38,5.46.13,10.93,0,16.39,0Zm-15.13,7.41a35.69,35.69,0,0,0,3,10.93c5.81,11.48,15.41,17,28.05,17.18,16.43.19,32.86.06,49.29,0a33.13,33.13,0,0,0,6.21-.56c11.09-2.13,18.59-8.66,22.75-19a81.84,81.84,0,0,0,2.4-8.52Zm22.61-7.52h67.29c-.11-1.77-.15-3.42-.34-5.06-.93-8.1-5.12-14-12.22-17.85A35.1,35.1,0,0,0,198,172.45c-7.6-.62-15.14-.48-22.56,1.47C163.35,177.08,156.22,187,157.36,199.18Z"/></svg>